{"title":"Debug 2014 720p BRRip x264 RmD","uid":11376655,"size":1601678252,"categoryP":"video","categoryS":"hd___movies","magnet":"?xt=urn:btih:a8d942721274b69f489bf49228a593b9d84e6b26&amp;dn=Debug+2014+720p+BRRip+x264+RmD&amp;tr=udp%3A%2F%2Ftracker.openbittorrent.com%3A80&amp;tr=udp%3A%2F%2Fopen.demonii.com%3A1337&amp;tr=udp%3A%2F%2Ftracker.coppersurfer.tk%3A6969&amp;tr=udp%3A%2F%2Fexodus.desync.com%3A6969","seeders":0,"leechers":1,"uploader":"RajMahal","files":-1,"time":1415152191,"description":"Screens : \n &lt;a href=&quot;\nhttp://s24.postimg.org/x4siazwhx/vlcsnap_2014_11_05_01h35m04s152.png&quot; rel=&quot;nofollow&quot; target=&quot;_NEW&quot;&gt;\nhttp://s24.postimg.org/x4siazwhx/vlcsnap_2014_11_05_01h35m04s152.png&lt;/a&gt;\n &lt;a href=&quot;\nhttp://s24.postimg.org/jexz279dx/vlcsnap_2014_11_05_01h35m31s184.png&quot; rel=&quot;nofollow&quot; target=&quot;_NEW&quot;&gt;\nhttp://s24.postimg.org/jexz279dx/vlcsnap_2014_11_05_01h35m31s184.png&lt;/a&gt;\n &lt;a href=&quot;\nhttp://s24.postimg.org/6xrbf1e85/vlcsnap_2014_11_05_01h35m39s10.png&quot; rel=&quot;nofollow&quot; target=&quot;_NEW&quot;&gt;\nhttp://s24.postimg.org/6xrbf1e85/vlcsnap_2014_11_05_01h35m39s10.png&lt;/a&gt;\n &lt;a href=&quot;\nhttp://s24.postimg.org/8qu83czet/vlcsnap_2014_11_05_01h35m54s167.png&quot; rel=&quot;nofollow&quot; target=&quot;_NEW&quot;&gt;\nhttp://s24.postimg.org/8qu83czet/vlcsnap_2014_11_05_01h35m54s167.png&lt;/a&gt;\n &lt;a href=&quot;\nhttp://s24.postimg.org/71l4vajph/vlcsnap_2014_11_05_01h36m15s131.png&quot; rel=&quot;nofollow&quot; target=&quot;_NEW&quot;&gt;\nhttp://s24.postimg.org/71l4vajph/vlcsnap_2014_11_05_01h36m15s131.png&lt;/a&gt;\n &lt;a href=&quot;\nhttp://s24.postimg.org/5g5v3h9hh/vlcsnap_2014_11_05_01h36m25s209.png&quot; rel=&quot;nofollow&quot; target=&quot;_NEW&quot;&gt;\nhttp://s24.postimg.org/5g5v3h9hh/vlcsnap_2014_11_05_01h36m25s209.png&lt;/a&gt;\n\n\n\nGeneral\nComplete name                            : E:Debug 2014 720p BRRip x264 RmD.mp4\nFormat                                   : MPEG-4\nFormat profile                           : Base Media\nCodec ID                                 : isom\nFile size                                : 1.49 GiB\nDuration                                 : 1h 25mn\nOverall bit rate                         : 2 485 Kbps\nEncoded date                             : UTC 2014-11-05 00:29:26\nTagged date                              : UTC 2014-11-05 00:29:26\n\nVideo\nID                                       : 1\nFormat                                   : AVC\nFormat/Info                              : Advanced Video Codec\nFormat profile                           : &lt;a class=&quot;__cf_email__&quot; href=&quot;/cdn-cgi/l/email-protection&quot; data-cfemail=&quot;024a6b656a424e312c33&quot;&gt;[email&amp;#160;protected]&lt;/a&gt;&lt;script cf-hash='f9e31' type=&quot;text/javascript&quot;&gt;\n/* &lt;![CDATA[ */!function(){try{var t=&quot;currentScript&quot;in document?document.currentScript:function(){for(var t=document.getElementsByTagName(&quot;script&quot;),e=t.length;e--;)if(t[e].getAttribute(&quot;cf-hash&quot;))return t[e]}();if(t&amp;&amp;t.previousSibling){var e,r,n,i,c=t.previousSibling,a=c.getAttribute(&quot;data-cfemail&quot;);if(a){for(e=&quot;&quot;,r=parseInt(a.substr(0,2),16),n=2;a.length-n;n+=2)i=parseInt(a.substr(n,2),16)^r,e+=String.fromCharCode(i);e=document.createTextNode(e),c.parentNode.replaceChild(e,c)}}}catch(u){}}();/* ]]&gt; */&lt;/script&gt;\nFormat settings, CABAC                   : No\nFormat settings, ReFrames                : 4 frames\nCodec ID                                 : avc1\nCodec ID/Info                            : Advanced Video Coding\nDuration                                 : 1h 25mn\nBit rate                                 : 2 099 Kbps\nMaximum bit rate                         : 20.0 Mbps\nWidth                                    : 1 280 pixels\nHeight                                   : 688 pixels\nDisplay aspect ratio                     : 1.85:1\nFrame rate mode                          : Constant\nFrame rate                               : 23.976 fps\nColor space                              : YUV\nChroma subsampling                       : 4:2:0\nBit depth                                : 8 bits\nScan type                                : Progressive\nBits/(Pixel*Frame)                       : 0.099\nStream size                              : 1.26 GiB (84%)\nWriting library                          : x264 core 142 r2431 ac76440\nEncoding settings                        : cabac=0 / ref=3 / deblock=0:0:0 / analyse=0x3:0x133 / me=hex / subme=4 / psy=1 / psy_rd=1.00:0.00 / mixed_ref=1 / me_range=16 / chroma_me=1 / trellis=0 / 8x8dct=1 / cqm=0 / deadzone=21,11 / fast_pskip=1 / chroma_qp_offset=0 / threads=6 / lookahead_threads=1 / sliced_threads=0 / nr=0 / decimate=1 / interlaced=0 / bluray_compat=0 / constrained_intra=0 / bframes=3 / b_pyramid=2 / b_adapt=1 / b_bias=0 / direct=3 / weightb=0 / open_gop=0 / weightp=0 / keyint=240 / keyint_min=23 / scenecut=40 / intra_refresh=0 / rc_lookahead=40 / rc=2pass / mbtree=1 / bitrate=2099 / ratetol=1.0 / qcomp=0.60 / qpmin=10 / qpmax=51 / qpstep=4 / cplxblur=20.0 / qblur=0.5 / ip_ratio=1.40 / aq=1:1.00\nEncoded date                             : UTC 2014-11-05 00:23:46\nTagged date                              : UTC 2014-11-05 00:31:25\n\nAudio\nID                                       : 2\nFormat                                   : AC-3\nFormat/Info                              : Audio Coding 3\nMode extension                           : CM (complete main)\nFormat settings, Endianness              : Big\nCodec ID                                 : ac-3\nDuration                                 : 1h 25mn\nBit rate mode                            : Constant\nBit rate                                 : 384 Kbps\nChannel(s)                               : 6 channels\nChannel positions                        : Front: L C R, Side: L R, LFE\nSampling rate                            : 48.0 KHz\nBit depth                                : 16 bits\nCompression mode                         : Lossy\nStream size                              : 236 MiB (15%)\nLanguage                                 : English\nEncoded date                             : UTC 2014-11-05 00:30:36\nTagged date                              : UTC 2014-11-05 00:31:25","torrent":{"xt":"urn:btih:a8d942721274b69f489bf49228a593b9d84e6b26","amp;dn":"Debug+2014+720p+BRRip+x264+RmD","amp;tr":["udp%3A%2F%2Ftracker.openbittorrent.com%3A80","udp%3A%2F%2Fopen.demonii.com%3A1337","udp%3A%2F%2Ftracker.coppersurfer.tk%3A6969","udp%3A%2F%2Fexodus.desync.com%3A6969"],"infoHash":"a8d942721274b69f489bf49228a593b9d84e6b26","infoHashBuffer":{"type":"Buffer","data":[168,217,66,114,18,116,182,159,72,155,244,146,40,165,147,185,216,78,107,38]},"announce":[],"urlList":[]}}